<mxfile host="app.diagrams.net" agent="Mozilla/5.0 (Windows NT 10.0; Win64; x64) AppleWebKit/537.36 (KHTML, like Gecko) Chrome/135.0.0.0 Safari/537.36" version="26.2.9">
  <diagram name="Página-1" id="fXwIsvSerIQqnNobdaiP">
    <mxGraphModel dx="868" dy="1646" grid="1" gridSize="10" guides="1" tooltips="1" connect="1" arrows="1" fold="1" page="1" pageScale="1" pageWidth="827" pageHeight="1169" math="0" shadow="0">
      <root>
        <mxCell id="0" />
        <mxCell id="1" parent="0" />
        <mxCell id="r_LziN7ynJXJ-bSP2Fgm-11" value="Pacientes" style="shape=table;startSize=30;container=1;collapsible=0;childLayout=tableLayout;fixedRows=1;rowLines=0;fontStyle=0;strokeColor=default;fontSize=16;" vertex="1" parent="1">
          <mxGeometry x="24" y="-1140" width="260" height="260" as="geometry" />
        </mxCell>
        <mxCell id="r_LziN7ynJXJ-bSP2Fgm-12" value="" style="shape=tableRow;horizontal=0;startSize=0;swimlaneHead=0;swimlaneBody=0;top=0;left=0;bottom=0;right=0;collapsible=0;dropTarget=0;fillColor=none;points=[[0,0.5],[1,0.5]];portConstraint=eastwest;strokeColor=inherit;fontSize=16;" vertex="1" parent="r_LziN7ynJXJ-bSP2Fgm-11">
          <mxGeometry y="30" width="260" height="40" as="geometry" />
        </mxCell>
        <mxCell id="r_LziN7ynJXJ-bSP2Fgm-14" value="nombreCompleto : String" style="shape=partialRectangle;html=1;whiteSpace=wrap;connectable=0;fillColor=none;top=0;left=0;bottom=0;right=0;align=left;spacingLeft=6;overflow=hidden;strokeColor=inherit;fontSize=16;" vertex="1" parent="r_LziN7ynJXJ-bSP2Fgm-12">
          <mxGeometry width="260" height="40" as="geometry">
            <mxRectangle width="260" height="40" as="alternateBounds" />
          </mxGeometry>
        </mxCell>
        <mxCell id="r_LziN7ynJXJ-bSP2Fgm-15" value="" style="shape=tableRow;horizontal=0;startSize=0;swimlaneHead=0;swimlaneBody=0;top=0;left=0;bottom=0;right=0;collapsible=0;dropTarget=0;fillColor=none;points=[[0,0.5],[1,0.5]];portConstraint=eastwest;strokeColor=inherit;fontSize=16;" vertex="1" parent="r_LziN7ynJXJ-bSP2Fgm-11">
          <mxGeometry y="70" width="260" height="20" as="geometry" />
        </mxCell>
        <mxCell id="r_LziN7ynJXJ-bSP2Fgm-17" value="numeroDNI: String" style="shape=partialRectangle;html=1;whiteSpace=wrap;connectable=0;fillColor=none;top=0;left=0;bottom=0;right=0;align=left;spacingLeft=6;overflow=hidden;strokeColor=inherit;fontSize=16;" vertex="1" parent="r_LziN7ynJXJ-bSP2Fgm-15">
          <mxGeometry width="260" height="20" as="geometry">
            <mxRectangle width="260" height="20" as="alternateBounds" />
          </mxGeometry>
        </mxCell>
        <mxCell id="r_LziN7ynJXJ-bSP2Fgm-18" value="" style="shape=tableRow;horizontal=0;startSize=0;swimlaneHead=0;swimlaneBody=0;top=0;left=0;bottom=0;right=0;collapsible=0;dropTarget=0;fillColor=none;points=[[0,0.5],[1,0.5]];portConstraint=eastwest;strokeColor=inherit;fontSize=16;" vertex="1" parent="r_LziN7ynJXJ-bSP2Fgm-11">
          <mxGeometry y="90" width="260" height="30" as="geometry" />
        </mxCell>
        <mxCell id="r_LziN7ynJXJ-bSP2Fgm-20" value="fechaNacimiento : Date" style="shape=partialRectangle;html=1;whiteSpace=wrap;connectable=0;fillColor=none;top=0;left=0;bottom=0;right=0;align=left;spacingLeft=6;overflow=hidden;strokeColor=inherit;fontSize=16;" vertex="1" parent="r_LziN7ynJXJ-bSP2Fgm-18">
          <mxGeometry width="260" height="30" as="geometry">
            <mxRectangle width="260" height="30" as="alternateBounds" />
          </mxGeometry>
        </mxCell>
        <mxCell id="r_LziN7ynJXJ-bSP2Fgm-21" value="" style="shape=tableRow;horizontal=0;startSize=0;swimlaneHead=0;swimlaneBody=0;top=0;left=0;bottom=0;right=0;collapsible=0;dropTarget=0;fillColor=none;points=[[0,0.5],[1,0.5]];portConstraint=eastwest;strokeColor=inherit;fontSize=16;" vertex="1" parent="r_LziN7ynJXJ-bSP2Fgm-11">
          <mxGeometry y="120" width="260" height="30" as="geometry" />
        </mxCell>
        <mxCell id="r_LziN7ynJXJ-bSP2Fgm-22" value="fecha nacimiento : String" style="shape=partialRectangle;html=1;whiteSpace=wrap;connectable=0;fillColor=none;top=0;left=0;bottom=0;right=0;align=left;spacingLeft=6;overflow=hidden;strokeColor=inherit;fontSize=16;" vertex="1" parent="r_LziN7ynJXJ-bSP2Fgm-21">
          <mxGeometry width="260" height="30" as="geometry">
            <mxRectangle width="260" height="30" as="alternateBounds" />
          </mxGeometry>
        </mxCell>
        <mxCell id="r_LziN7ynJXJ-bSP2Fgm-23" value="" style="shape=tableRow;horizontal=0;startSize=0;swimlaneHead=0;swimlaneBody=0;top=0;left=0;bottom=0;right=0;collapsible=0;dropTarget=0;fillColor=none;points=[[0,0.5],[1,0.5]];portConstraint=eastwest;strokeColor=inherit;fontSize=16;" vertex="1" parent="r_LziN7ynJXJ-bSP2Fgm-11">
          <mxGeometry y="150" width="260" height="30" as="geometry" />
        </mxCell>
        <mxCell id="r_LziN7ynJXJ-bSP2Fgm-24" value="fecha nacimiento : String" style="shape=partialRectangle;html=1;whiteSpace=wrap;connectable=0;fillColor=none;top=0;left=0;bottom=0;right=0;align=left;spacingLeft=6;overflow=hidden;strokeColor=inherit;fontSize=16;" vertex="1" parent="r_LziN7ynJXJ-bSP2Fgm-23">
          <mxGeometry width="260" height="30" as="geometry">
            <mxRectangle width="260" height="30" as="alternateBounds" />
          </mxGeometry>
        </mxCell>
        <mxCell id="r_LziN7ynJXJ-bSP2Fgm-1" value="Turnos " style="shape=table;startSize=30;container=1;collapsible=0;childLayout=tableLayout;fixedRows=1;rowLines=0;fontStyle=0;strokeColor=default;fontSize=16;" vertex="1" parent="1">
          <mxGeometry x="396" y="-980" width="194" height="340" as="geometry" />
        </mxCell>
        <mxCell id="r_LziN7ynJXJ-bSP2Fgm-2" value="" style="shape=tableRow;horizontal=0;startSize=0;swimlaneHead=0;swimlaneBody=0;top=0;left=0;bottom=0;right=0;collapsible=0;dropTarget=0;fillColor=none;points=[[0,0.5],[1,0.5]];portConstraint=eastwest;strokeColor=inherit;fontSize=16;" vertex="1" parent="r_LziN7ynJXJ-bSP2Fgm-1">
          <mxGeometry y="30" width="194" height="20" as="geometry" />
        </mxCell>
        <mxCell id="r_LziN7ynJXJ-bSP2Fgm-4" value="" style="shape=partialRectangle;html=1;whiteSpace=wrap;connectable=0;fillColor=none;top=0;left=0;bottom=0;right=0;align=left;spacingLeft=6;overflow=hidden;strokeColor=inherit;fontSize=16;" vertex="1" parent="r_LziN7ynJXJ-bSP2Fgm-2">
          <mxGeometry width="194" height="20" as="geometry">
            <mxRectangle width="194" height="20" as="alternateBounds" />
          </mxGeometry>
        </mxCell>
        <mxCell id="r_LziN7ynJXJ-bSP2Fgm-5" value="" style="shape=tableRow;horizontal=0;startSize=0;swimlaneHead=0;swimlaneBody=0;top=0;left=0;bottom=0;right=0;collapsible=0;dropTarget=0;fillColor=none;points=[[0,0.5],[1,0.5]];portConstraint=eastwest;strokeColor=inherit;fontSize=16;" vertex="1" parent="r_LziN7ynJXJ-bSP2Fgm-1">
          <mxGeometry y="50" width="194" height="30" as="geometry" />
        </mxCell>
        <mxCell id="r_LziN7ynJXJ-bSP2Fgm-7" value="-fechaHora: DateTime" style="shape=partialRectangle;html=1;whiteSpace=wrap;connectable=0;fillColor=none;top=0;left=0;bottom=0;right=0;align=left;spacingLeft=6;overflow=hidden;strokeColor=inherit;fontSize=16;" vertex="1" parent="r_LziN7ynJXJ-bSP2Fgm-5">
          <mxGeometry width="194" height="30" as="geometry">
            <mxRectangle width="194" height="30" as="alternateBounds" />
          </mxGeometry>
        </mxCell>
        <mxCell id="r_LziN7ynJXJ-bSP2Fgm-8" value="" style="shape=tableRow;horizontal=0;startSize=0;swimlaneHead=0;swimlaneBody=0;top=0;left=0;bottom=0;right=0;collapsible=0;dropTarget=0;fillColor=none;points=[[0,0.5],[1,0.5]];portConstraint=eastwest;strokeColor=inherit;fontSize=16;" vertex="1" parent="r_LziN7ynJXJ-bSP2Fgm-1">
          <mxGeometry y="80" width="194" height="30" as="geometry" />
        </mxCell>
        <mxCell id="r_LziN7ynJXJ-bSP2Fgm-10" value="-motivo: String" style="shape=partialRectangle;html=1;whiteSpace=wrap;connectable=0;fillColor=none;top=0;left=0;bottom=0;right=0;align=left;spacingLeft=6;overflow=hidden;strokeColor=inherit;fontSize=16;" vertex="1" parent="r_LziN7ynJXJ-bSP2Fgm-8">
          <mxGeometry width="194" height="30" as="geometry">
            <mxRectangle width="194" height="30" as="alternateBounds" />
          </mxGeometry>
        </mxCell>
        <mxCell id="r_LziN7ynJXJ-bSP2Fgm-25" value="" style="shape=tableRow;horizontal=0;startSize=0;swimlaneHead=0;swimlaneBody=0;top=0;left=0;bottom=0;right=0;collapsible=0;dropTarget=0;fillColor=none;points=[[0,0.5],[1,0.5]];portConstraint=eastwest;strokeColor=inherit;fontSize=16;" vertex="1" parent="r_LziN7ynJXJ-bSP2Fgm-1">
          <mxGeometry y="110" width="194" height="30" as="geometry" />
        </mxCell>
        <mxCell id="r_LziN7ynJXJ-bSP2Fgm-27" value="-estado: String" style="shape=partialRectangle;html=1;whiteSpace=wrap;connectable=0;fillColor=none;top=0;left=0;bottom=0;right=0;align=left;spacingLeft=6;overflow=hidden;strokeColor=inherit;fontSize=16;" vertex="1" parent="r_LziN7ynJXJ-bSP2Fgm-25">
          <mxGeometry width="194" height="30" as="geometry">
            <mxRectangle width="194" height="30" as="alternateBounds" />
          </mxGeometry>
        </mxCell>
        <mxCell id="r_LziN7ynJXJ-bSP2Fgm-28" value="" style="shape=tableRow;horizontal=0;startSize=0;swimlaneHead=0;swimlaneBody=0;top=0;left=0;bottom=0;right=0;collapsible=0;dropTarget=0;fillColor=none;points=[[0,0.5],[1,0.5]];portConstraint=eastwest;strokeColor=inherit;fontSize=16;" vertex="1" parent="r_LziN7ynJXJ-bSP2Fgm-1">
          <mxGeometry y="140" width="194" height="30" as="geometry" />
        </mxCell>
        <mxCell id="r_LziN7ynJXJ-bSP2Fgm-30" value="-pacienteID: Integer" style="shape=partialRectangle;html=1;whiteSpace=wrap;connectable=0;fillColor=none;top=0;left=0;bottom=0;right=0;align=left;spacingLeft=6;overflow=hidden;strokeColor=inherit;fontSize=16;" vertex="1" parent="r_LziN7ynJXJ-bSP2Fgm-28">
          <mxGeometry width="194" height="30" as="geometry">
            <mxRectangle width="194" height="30" as="alternateBounds" />
          </mxGeometry>
        </mxCell>
        <mxCell id="r_LziN7ynJXJ-bSP2Fgm-31" value="" style="shape=tableRow;horizontal=0;startSize=0;swimlaneHead=0;swimlaneBody=0;top=0;left=0;bottom=0;right=0;collapsible=0;dropTarget=0;fillColor=none;points=[[0,0.5],[1,0.5]];portConstraint=eastwest;strokeColor=inherit;fontSize=16;" vertex="1" parent="r_LziN7ynJXJ-bSP2Fgm-1">
          <mxGeometry y="170" width="194" height="30" as="geometry" />
        </mxCell>
        <mxCell id="r_LziN7ynJXJ-bSP2Fgm-33" value="-medicoID : Integer&amp;nbsp;" style="shape=partialRectangle;html=1;whiteSpace=wrap;connectable=0;fillColor=none;top=0;left=0;bottom=0;right=0;align=left;spacingLeft=6;overflow=hidden;strokeColor=inherit;fontSize=16;" vertex="1" parent="r_LziN7ynJXJ-bSP2Fgm-31">
          <mxGeometry width="194" height="30" as="geometry">
            <mxRectangle width="194" height="30" as="alternateBounds" />
          </mxGeometry>
        </mxCell>
        <mxCell id="r_LziN7ynJXJ-bSP2Fgm-34" value="" style="shape=tableRow;horizontal=0;startSize=0;swimlaneHead=0;swimlaneBody=0;top=0;left=0;bottom=0;right=0;collapsible=0;dropTarget=0;fillColor=none;points=[[0,0.5],[1,0.5]];portConstraint=eastwest;strokeColor=inherit;fontSize=16;" vertex="1" parent="r_LziN7ynJXJ-bSP2Fgm-1">
          <mxGeometry y="200" width="194" height="30" as="geometry" />
        </mxCell>
        <mxCell id="r_LziN7ynJXJ-bSP2Fgm-36" value="" style="shape=partialRectangle;html=1;whiteSpace=wrap;connectable=0;fillColor=none;top=0;left=0;bottom=0;right=0;align=left;spacingLeft=6;overflow=hidden;strokeColor=inherit;fontSize=16;" vertex="1" parent="r_LziN7ynJXJ-bSP2Fgm-34">
          <mxGeometry width="194" height="30" as="geometry">
            <mxRectangle width="194" height="30" as="alternateBounds" />
          </mxGeometry>
        </mxCell>
        <mxCell id="r_LziN7ynJXJ-bSP2Fgm-37" value="" style="shape=tableRow;horizontal=0;startSize=0;swimlaneHead=0;swimlaneBody=0;top=0;left=0;bottom=0;right=0;collapsible=0;dropTarget=0;fillColor=none;points=[[0,0.5],[1,0.5]];portConstraint=eastwest;strokeColor=inherit;fontSize=16;" vertex="1" parent="r_LziN7ynJXJ-bSP2Fgm-1">
          <mxGeometry y="230" width="194" height="30" as="geometry" />
        </mxCell>
        <mxCell id="r_LziN7ynJXJ-bSP2Fgm-39" value="" style="shape=partialRectangle;html=1;whiteSpace=wrap;connectable=0;fillColor=none;top=0;left=0;bottom=0;right=0;align=left;spacingLeft=6;overflow=hidden;strokeColor=inherit;fontSize=16;" vertex="1" parent="r_LziN7ynJXJ-bSP2Fgm-37">
          <mxGeometry width="194" height="30" as="geometry">
            <mxRectangle width="194" height="30" as="alternateBounds" />
          </mxGeometry>
        </mxCell>
        <mxCell id="r_LziN7ynJXJ-bSP2Fgm-68" value="" style="shape=tableRow;horizontal=0;startSize=0;swimlaneHead=0;swimlaneBody=0;top=0;left=0;bottom=0;right=0;collapsible=0;dropTarget=0;fillColor=none;points=[[0,0.5],[1,0.5]];portConstraint=eastwest;strokeColor=inherit;fontSize=16;" vertex="1" parent="r_LziN7ynJXJ-bSP2Fgm-1">
          <mxGeometry y="260" width="194" height="30" as="geometry" />
        </mxCell>
        <mxCell id="r_LziN7ynJXJ-bSP2Fgm-70" value="+ cancelar(). void&amp;nbsp;" style="shape=partialRectangle;html=1;whiteSpace=wrap;connectable=0;fillColor=none;top=0;left=0;bottom=0;right=0;align=left;spacingLeft=6;overflow=hidden;strokeColor=inherit;fontSize=16;" vertex="1" parent="r_LziN7ynJXJ-bSP2Fgm-68">
          <mxGeometry width="194" height="30" as="geometry">
            <mxRectangle width="194" height="30" as="alternateBounds" />
          </mxGeometry>
        </mxCell>
        <mxCell id="r_LziN7ynJXJ-bSP2Fgm-71" value="" style="shape=tableRow;horizontal=0;startSize=0;swimlaneHead=0;swimlaneBody=0;top=0;left=0;bottom=0;right=0;collapsible=0;dropTarget=0;fillColor=none;points=[[0,0.5],[1,0.5]];portConstraint=eastwest;strokeColor=inherit;fontSize=16;" vertex="1" parent="r_LziN7ynJXJ-bSP2Fgm-1">
          <mxGeometry y="290" width="194" height="30" as="geometry" />
        </mxCell>
        <mxCell id="r_LziN7ynJXJ-bSP2Fgm-73" value="+obtenerDetalle(): String" style="shape=partialRectangle;html=1;whiteSpace=wrap;connectable=0;fillColor=none;top=0;left=0;bottom=0;right=0;align=left;spacingLeft=6;overflow=hidden;strokeColor=inherit;fontSize=16;" vertex="1" parent="r_LziN7ynJXJ-bSP2Fgm-71">
          <mxGeometry width="194" height="30" as="geometry">
            <mxRectangle width="194" height="30" as="alternateBounds" />
          </mxGeometry>
        </mxCell>
        <mxCell id="r_LziN7ynJXJ-bSP2Fgm-74" value="Medico " style="shape=table;startSize=30;container=1;collapsible=0;childLayout=tableLayout;fixedRows=1;rowLines=0;fontStyle=0;strokeColor=default;fontSize=16;" vertex="1" parent="1">
          <mxGeometry x="30" y="-670" width="306" height="380" as="geometry" />
        </mxCell>
        <mxCell id="r_LziN7ynJXJ-bSP2Fgm-75" value="" style="shape=tableRow;horizontal=0;startSize=0;swimlaneHead=0;swimlaneBody=0;top=0;left=0;bottom=0;right=0;collapsible=0;dropTarget=0;fillColor=none;points=[[0,0.5],[1,0.5]];portConstraint=eastwest;strokeColor=inherit;fontSize=16;" vertex="1" parent="r_LziN7ynJXJ-bSP2Fgm-74">
          <mxGeometry y="30" width="306" height="40" as="geometry" />
        </mxCell>
        <mxCell id="r_LziN7ynJXJ-bSP2Fgm-76" value="-nombre : String" style="shape=partialRectangle;html=1;whiteSpace=wrap;connectable=0;fillColor=none;top=0;left=0;bottom=0;right=0;align=left;spacingLeft=6;overflow=hidden;strokeColor=inherit;fontSize=16;" vertex="1" parent="r_LziN7ynJXJ-bSP2Fgm-75">
          <mxGeometry width="306" height="40" as="geometry">
            <mxRectangle width="306" height="40" as="alternateBounds" />
          </mxGeometry>
        </mxCell>
        <mxCell id="r_LziN7ynJXJ-bSP2Fgm-77" value="" style="shape=tableRow;horizontal=0;startSize=0;swimlaneHead=0;swimlaneBody=0;top=0;left=0;bottom=0;right=0;collapsible=0;dropTarget=0;fillColor=none;points=[[0,0.5],[1,0.5]];portConstraint=eastwest;strokeColor=inherit;fontSize=16;" vertex="1" parent="r_LziN7ynJXJ-bSP2Fgm-74">
          <mxGeometry y="70" width="306" height="20" as="geometry" />
        </mxCell>
        <mxCell id="r_LziN7ynJXJ-bSP2Fgm-78" value="-matricula: String" style="shape=partialRectangle;html=1;whiteSpace=wrap;connectable=0;fillColor=none;top=0;left=0;bottom=0;right=0;align=left;spacingLeft=6;overflow=hidden;strokeColor=inherit;fontSize=16;" vertex="1" parent="r_LziN7ynJXJ-bSP2Fgm-77">
          <mxGeometry width="306" height="20" as="geometry">
            <mxRectangle width="306" height="20" as="alternateBounds" />
          </mxGeometry>
        </mxCell>
        <mxCell id="r_LziN7ynJXJ-bSP2Fgm-79" value="" style="shape=tableRow;horizontal=0;startSize=0;swimlaneHead=0;swimlaneBody=0;top=0;left=0;bottom=0;right=0;collapsible=0;dropTarget=0;fillColor=none;points=[[0,0.5],[1,0.5]];portConstraint=eastwest;strokeColor=inherit;fontSize=16;" vertex="1" parent="r_LziN7ynJXJ-bSP2Fgm-74">
          <mxGeometry y="90" width="306" height="30" as="geometry" />
        </mxCell>
        <mxCell id="r_LziN7ynJXJ-bSP2Fgm-80" value="-especialidad : String" style="shape=partialRectangle;html=1;whiteSpace=wrap;connectable=0;fillColor=none;top=0;left=0;bottom=0;right=0;align=left;spacingLeft=6;overflow=hidden;strokeColor=inherit;fontSize=16;" vertex="1" parent="r_LziN7ynJXJ-bSP2Fgm-79">
          <mxGeometry width="306" height="30" as="geometry">
            <mxRectangle width="306" height="30" as="alternateBounds" />
          </mxGeometry>
        </mxCell>
        <mxCell id="r_LziN7ynJXJ-bSP2Fgm-81" value="" style="shape=tableRow;horizontal=0;startSize=0;swimlaneHead=0;swimlaneBody=0;top=0;left=0;bottom=0;right=0;collapsible=0;dropTarget=0;fillColor=none;points=[[0,0.5],[1,0.5]];portConstraint=eastwest;strokeColor=inherit;fontSize=16;" vertex="1" parent="r_LziN7ynJXJ-bSP2Fgm-74">
          <mxGeometry y="120" width="306" height="30" as="geometry" />
        </mxCell>
        <mxCell id="r_LziN7ynJXJ-bSP2Fgm-82" value="-celular : String" style="shape=partialRectangle;html=1;whiteSpace=wrap;connectable=0;fillColor=none;top=0;left=0;bottom=0;right=0;align=left;spacingLeft=6;overflow=hidden;strokeColor=inherit;fontSize=16;" vertex="1" parent="r_LziN7ynJXJ-bSP2Fgm-81">
          <mxGeometry width="306" height="30" as="geometry">
            <mxRectangle width="306" height="30" as="alternateBounds" />
          </mxGeometry>
        </mxCell>
        <mxCell id="r_LziN7ynJXJ-bSP2Fgm-83" value="" style="shape=tableRow;horizontal=0;startSize=0;swimlaneHead=0;swimlaneBody=0;top=0;left=0;bottom=0;right=0;collapsible=0;dropTarget=0;fillColor=none;points=[[0,0.5],[1,0.5]];portConstraint=eastwest;strokeColor=inherit;fontSize=16;" vertex="1" parent="r_LziN7ynJXJ-bSP2Fgm-74">
          <mxGeometry y="150" width="306" height="30" as="geometry" />
        </mxCell>
        <mxCell id="r_LziN7ynJXJ-bSP2Fgm-84" value="-correo : String" style="shape=partialRectangle;html=1;whiteSpace=wrap;connectable=0;fillColor=none;top=0;left=0;bottom=0;right=0;align=left;spacingLeft=6;overflow=hidden;strokeColor=inherit;fontSize=16;" vertex="1" parent="r_LziN7ynJXJ-bSP2Fgm-83">
          <mxGeometry width="306" height="30" as="geometry">
            <mxRectangle width="306" height="30" as="alternateBounds" />
          </mxGeometry>
        </mxCell>
        <mxCell id="r_LziN7ynJXJ-bSP2Fgm-102" value="" style="shape=tableRow;horizontal=0;startSize=0;swimlaneHead=0;swimlaneBody=0;top=0;left=0;bottom=0;right=0;collapsible=0;dropTarget=0;fillColor=none;points=[[0,0.5],[1,0.5]];portConstraint=eastwest;strokeColor=inherit;fontSize=16;" vertex="1" parent="r_LziN7ynJXJ-bSP2Fgm-74">
          <mxGeometry y="180" width="306" height="30" as="geometry" />
        </mxCell>
        <mxCell id="r_LziN7ynJXJ-bSP2Fgm-103" value="" style="shape=partialRectangle;html=1;whiteSpace=wrap;connectable=0;fillColor=none;top=0;left=0;bottom=0;right=0;align=left;spacingLeft=6;overflow=hidden;strokeColor=inherit;fontSize=16;" vertex="1" parent="r_LziN7ynJXJ-bSP2Fgm-102">
          <mxGeometry width="306" height="30" as="geometry">
            <mxRectangle width="306" height="30" as="alternateBounds" />
          </mxGeometry>
        </mxCell>
        <mxCell id="r_LziN7ynJXJ-bSP2Fgm-104" value="" style="shape=tableRow;horizontal=0;startSize=0;swimlaneHead=0;swimlaneBody=0;top=0;left=0;bottom=0;right=0;collapsible=0;dropTarget=0;fillColor=none;points=[[0,0.5],[1,0.5]];portConstraint=eastwest;strokeColor=inherit;fontSize=16;" vertex="1" parent="r_LziN7ynJXJ-bSP2Fgm-74">
          <mxGeometry y="210" width="306" height="30" as="geometry" />
        </mxCell>
        <mxCell id="r_LziN7ynJXJ-bSP2Fgm-105" value="" style="shape=partialRectangle;html=1;whiteSpace=wrap;connectable=0;fillColor=none;top=0;left=0;bottom=0;right=0;align=left;spacingLeft=6;overflow=hidden;strokeColor=inherit;fontSize=16;" vertex="1" parent="r_LziN7ynJXJ-bSP2Fgm-104">
          <mxGeometry width="306" height="30" as="geometry">
            <mxRectangle width="306" height="30" as="alternateBounds" />
          </mxGeometry>
        </mxCell>
        <mxCell id="r_LziN7ynJXJ-bSP2Fgm-106" value="" style="shape=tableRow;horizontal=0;startSize=0;swimlaneHead=0;swimlaneBody=0;top=0;left=0;bottom=0;right=0;collapsible=0;dropTarget=0;fillColor=none;points=[[0,0.5],[1,0.5]];portConstraint=eastwest;strokeColor=inherit;fontSize=16;" vertex="1" parent="r_LziN7ynJXJ-bSP2Fgm-74">
          <mxGeometry y="240" width="306" height="30" as="geometry" />
        </mxCell>
        <mxCell id="r_LziN7ynJXJ-bSP2Fgm-107" value="+confirmar() void" style="shape=partialRectangle;html=1;whiteSpace=wrap;connectable=0;fillColor=none;top=0;left=0;bottom=0;right=0;align=left;spacingLeft=6;overflow=hidden;strokeColor=inherit;fontSize=16;" vertex="1" parent="r_LziN7ynJXJ-bSP2Fgm-106">
          <mxGeometry width="306" height="30" as="geometry">
            <mxRectangle width="306" height="30" as="alternateBounds" />
          </mxGeometry>
        </mxCell>
        <mxCell id="r_LziN7ynJXJ-bSP2Fgm-108" value="" style="shape=tableRow;horizontal=0;startSize=0;swimlaneHead=0;swimlaneBody=0;top=0;left=0;bottom=0;right=0;collapsible=0;dropTarget=0;fillColor=none;points=[[0,0.5],[1,0.5]];portConstraint=eastwest;strokeColor=inherit;fontSize=16;" vertex="1" parent="r_LziN7ynJXJ-bSP2Fgm-74">
          <mxGeometry y="270" width="306" height="30" as="geometry" />
        </mxCell>
        <mxCell id="r_LziN7ynJXJ-bSP2Fgm-109" value="+consultarAgenda() List&amp;lt;Turno&amp;gt;" style="shape=partialRectangle;html=1;whiteSpace=wrap;connectable=0;fillColor=none;top=0;left=0;bottom=0;right=0;align=left;spacingLeft=6;overflow=hidden;strokeColor=inherit;fontSize=16;" vertex="1" parent="r_LziN7ynJXJ-bSP2Fgm-108">
          <mxGeometry width="306" height="30" as="geometry">
            <mxRectangle width="306" height="30" as="alternateBounds" />
          </mxGeometry>
        </mxCell>
        <mxCell id="r_LziN7ynJXJ-bSP2Fgm-110" value="" style="shape=tableRow;horizontal=0;startSize=0;swimlaneHead=0;swimlaneBody=0;top=0;left=0;bottom=0;right=0;collapsible=0;dropTarget=0;fillColor=none;points=[[0,0.5],[1,0.5]];portConstraint=eastwest;strokeColor=inherit;fontSize=16;" vertex="1" parent="r_LziN7ynJXJ-bSP2Fgm-74">
          <mxGeometry y="300" width="306" height="30" as="geometry" />
        </mxCell>
        <mxCell id="r_LziN7ynJXJ-bSP2Fgm-111" value="" style="shape=partialRectangle;html=1;whiteSpace=wrap;connectable=0;fillColor=none;top=0;left=0;bottom=0;right=0;align=left;spacingLeft=6;overflow=hidden;strokeColor=inherit;fontSize=16;" vertex="1" parent="r_LziN7ynJXJ-bSP2Fgm-110">
          <mxGeometry width="306" height="30" as="geometry">
            <mxRectangle width="306" height="30" as="alternateBounds" />
          </mxGeometry>
        </mxCell>
        <mxCell id="r_LziN7ynJXJ-bSP2Fgm-112" value="" style="shape=tableRow;horizontal=0;startSize=0;swimlaneHead=0;swimlaneBody=0;top=0;left=0;bottom=0;right=0;collapsible=0;dropTarget=0;fillColor=none;points=[[0,0.5],[1,0.5]];portConstraint=eastwest;strokeColor=inherit;fontSize=16;" vertex="1" parent="r_LziN7ynJXJ-bSP2Fgm-74">
          <mxGeometry y="330" width="306" height="30" as="geometry" />
        </mxCell>
        <mxCell id="r_LziN7ynJXJ-bSP2Fgm-113" value="+verDetalleTurno(turno Turno) String" style="shape=partialRectangle;html=1;whiteSpace=wrap;connectable=0;fillColor=none;top=0;left=0;bottom=0;right=0;align=left;spacingLeft=6;overflow=hidden;strokeColor=inherit;fontSize=16;" vertex="1" parent="r_LziN7ynJXJ-bSP2Fgm-112">
          <mxGeometry width="306" height="30" as="geometry">
            <mxRectangle width="306" height="30" as="alternateBounds" />
          </mxGeometry>
        </mxCell>
        <mxCell id="r_LziN7ynJXJ-bSP2Fgm-114" value="Recepcionista" style="shape=table;startSize=30;container=1;collapsible=0;childLayout=tableLayout;fixedRows=1;rowLines=0;fontStyle=0;strokeColor=default;fontSize=16;" vertex="1" parent="1">
          <mxGeometry x="210" y="-210" width="480" height="490" as="geometry" />
        </mxCell>
        <mxCell id="r_LziN7ynJXJ-bSP2Fgm-115" value="" style="shape=tableRow;horizontal=0;startSize=0;swimlaneHead=0;swimlaneBody=0;top=0;left=0;bottom=0;right=0;collapsible=0;dropTarget=0;fillColor=none;points=[[0,0.5],[1,0.5]];portConstraint=eastwest;strokeColor=inherit;fontSize=16;" vertex="1" parent="r_LziN7ynJXJ-bSP2Fgm-114">
          <mxGeometry y="30" width="480" height="40" as="geometry" />
        </mxCell>
        <mxCell id="r_LziN7ynJXJ-bSP2Fgm-116" value="&amp;nbsp; &amp;nbsp; &amp;nbsp; &amp;nbsp; &amp;nbsp; &amp;nbsp; &amp;nbsp; &amp;nbsp; &amp;nbsp; &amp;nbsp; &amp;nbsp; &amp;nbsp; &amp;nbsp; &amp;nbsp; &amp;nbsp; -nombre : String" style="shape=partialRectangle;html=1;whiteSpace=wrap;connectable=0;fillColor=none;top=0;left=0;bottom=0;right=0;align=left;spacingLeft=6;overflow=hidden;strokeColor=inherit;fontSize=16;" vertex="1" parent="r_LziN7ynJXJ-bSP2Fgm-115">
          <mxGeometry width="480" height="40" as="geometry">
            <mxRectangle width="480" height="40" as="alternateBounds" />
          </mxGeometry>
        </mxCell>
        <mxCell id="r_LziN7ynJXJ-bSP2Fgm-117" value="" style="shape=tableRow;horizontal=0;startSize=0;swimlaneHead=0;swimlaneBody=0;top=0;left=0;bottom=0;right=0;collapsible=0;dropTarget=0;fillColor=none;points=[[0,0.5],[1,0.5]];portConstraint=eastwest;strokeColor=inherit;fontSize=16;" vertex="1" parent="r_LziN7ynJXJ-bSP2Fgm-114">
          <mxGeometry y="70" width="480" height="20" as="geometry" />
        </mxCell>
        <mxCell id="r_LziN7ynJXJ-bSP2Fgm-118" value="&amp;nbsp; &amp;nbsp; &amp;nbsp; &amp;nbsp; &amp;nbsp; &amp;nbsp; &amp;nbsp; &amp;nbsp; &amp;nbsp; &amp;nbsp; &amp;nbsp; &amp;nbsp; &amp;nbsp; &amp;nbsp; &amp;nbsp; &amp;nbsp;-usuario: String" style="shape=partialRectangle;html=1;whiteSpace=wrap;connectable=0;fillColor=none;top=0;left=0;bottom=0;right=0;align=left;spacingLeft=6;overflow=hidden;strokeColor=inherit;fontSize=16;" vertex="1" parent="r_LziN7ynJXJ-bSP2Fgm-117">
          <mxGeometry width="480" height="20" as="geometry">
            <mxRectangle width="480" height="20" as="alternateBounds" />
          </mxGeometry>
        </mxCell>
        <mxCell id="r_LziN7ynJXJ-bSP2Fgm-119" value="" style="shape=tableRow;horizontal=0;startSize=0;swimlaneHead=0;swimlaneBody=0;top=0;left=0;bottom=0;right=0;collapsible=0;dropTarget=0;fillColor=none;points=[[0,0.5],[1,0.5]];portConstraint=eastwest;strokeColor=inherit;fontSize=16;" vertex="1" parent="r_LziN7ynJXJ-bSP2Fgm-114">
          <mxGeometry y="90" width="480" height="30" as="geometry" />
        </mxCell>
        <mxCell id="r_LziN7ynJXJ-bSP2Fgm-120" value="&amp;nbsp; &amp;nbsp; &amp;nbsp; &amp;nbsp; &amp;nbsp; &amp;nbsp; &amp;nbsp; &amp;nbsp; &amp;nbsp; &amp;nbsp; &amp;nbsp; &amp;nbsp; &amp;nbsp; &amp;nbsp; &amp;nbsp; &amp;nbsp;-contraseña: String" style="shape=partialRectangle;html=1;whiteSpace=wrap;connectable=0;fillColor=none;top=0;left=0;bottom=0;right=0;align=left;spacingLeft=6;overflow=hidden;strokeColor=inherit;fontSize=16;" vertex="1" parent="r_LziN7ynJXJ-bSP2Fgm-119">
          <mxGeometry width="480" height="30" as="geometry">
            <mxRectangle width="480" height="30" as="alternateBounds" />
          </mxGeometry>
        </mxCell>
        <mxCell id="r_LziN7ynJXJ-bSP2Fgm-121" value="" style="shape=tableRow;horizontal=0;startSize=0;swimlaneHead=0;swimlaneBody=0;top=0;left=0;bottom=0;right=0;collapsible=0;dropTarget=0;fillColor=none;points=[[0,0.5],[1,0.5]];portConstraint=eastwest;strokeColor=inherit;fontSize=16;" vertex="1" parent="r_LziN7ynJXJ-bSP2Fgm-114">
          <mxGeometry y="120" width="480" height="30" as="geometry" />
        </mxCell>
        <mxCell id="r_LziN7ynJXJ-bSP2Fgm-122" value="" style="shape=partialRectangle;html=1;whiteSpace=wrap;connectable=0;fillColor=none;top=0;left=0;bottom=0;right=0;align=left;spacingLeft=6;overflow=hidden;strokeColor=inherit;fontSize=16;" vertex="1" parent="r_LziN7ynJXJ-bSP2Fgm-121">
          <mxGeometry width="480" height="30" as="geometry">
            <mxRectangle width="480" height="30" as="alternateBounds" />
          </mxGeometry>
        </mxCell>
        <mxCell id="r_LziN7ynJXJ-bSP2Fgm-123" value="" style="shape=tableRow;horizontal=0;startSize=0;swimlaneHead=0;swimlaneBody=0;top=0;left=0;bottom=0;right=0;collapsible=0;dropTarget=0;fillColor=none;points=[[0,0.5],[1,0.5]];portConstraint=eastwest;strokeColor=inherit;fontSize=16;" vertex="1" parent="r_LziN7ynJXJ-bSP2Fgm-114">
          <mxGeometry y="150" width="480" height="40" as="geometry" />
        </mxCell>
        <mxCell id="r_LziN7ynJXJ-bSP2Fgm-124" value="" style="shape=partialRectangle;html=1;whiteSpace=wrap;connectable=0;fillColor=none;top=0;left=0;bottom=0;right=0;align=left;spacingLeft=6;overflow=hidden;strokeColor=inherit;fontSize=16;" vertex="1" parent="r_LziN7ynJXJ-bSP2Fgm-123">
          <mxGeometry width="480" height="40" as="geometry">
            <mxRectangle width="480" height="40" as="alternateBounds" />
          </mxGeometry>
        </mxCell>
        <mxCell id="r_LziN7ynJXJ-bSP2Fgm-125" value="" style="shape=tableRow;horizontal=0;startSize=0;swimlaneHead=0;swimlaneBody=0;top=0;left=0;bottom=0;right=0;collapsible=0;dropTarget=0;fillColor=none;points=[[0,0.5],[1,0.5]];portConstraint=eastwest;strokeColor=inherit;fontSize=16;" vertex="1" parent="r_LziN7ynJXJ-bSP2Fgm-114">
          <mxGeometry y="190" width="480" height="40" as="geometry" />
        </mxCell>
        <mxCell id="r_LziN7ynJXJ-bSP2Fgm-126" value="" style="shape=partialRectangle;html=1;whiteSpace=wrap;connectable=0;fillColor=none;top=0;left=0;bottom=0;right=0;align=left;spacingLeft=6;overflow=hidden;strokeColor=inherit;fontSize=16;" vertex="1" parent="r_LziN7ynJXJ-bSP2Fgm-125">
          <mxGeometry width="480" height="40" as="geometry">
            <mxRectangle width="480" height="40" as="alternateBounds" />
          </mxGeometry>
        </mxCell>
        <mxCell id="r_LziN7ynJXJ-bSP2Fgm-127" value="" style="shape=tableRow;horizontal=0;startSize=0;swimlaneHead=0;swimlaneBody=0;top=0;left=0;bottom=0;right=0;collapsible=0;dropTarget=0;fillColor=none;points=[[0,0.5],[1,0.5]];portConstraint=eastwest;strokeColor=inherit;fontSize=16;" vertex="1" parent="r_LziN7ynJXJ-bSP2Fgm-114">
          <mxGeometry y="230" width="480" height="30" as="geometry" />
        </mxCell>
        <mxCell id="r_LziN7ynJXJ-bSP2Fgm-128" value="" style="shape=partialRectangle;html=1;whiteSpace=wrap;connectable=0;fillColor=none;top=0;left=0;bottom=0;right=0;align=left;spacingLeft=6;overflow=hidden;strokeColor=inherit;fontSize=16;" vertex="1" parent="r_LziN7ynJXJ-bSP2Fgm-127">
          <mxGeometry width="480" height="30" as="geometry">
            <mxRectangle width="480" height="30" as="alternateBounds" />
          </mxGeometry>
        </mxCell>
        <mxCell id="r_LziN7ynJXJ-bSP2Fgm-129" value="" style="shape=tableRow;horizontal=0;startSize=0;swimlaneHead=0;swimlaneBody=0;top=0;left=0;bottom=0;right=0;collapsible=0;dropTarget=0;fillColor=none;points=[[0,0.5],[1,0.5]];portConstraint=eastwest;strokeColor=inherit;fontSize=16;" vertex="1" parent="r_LziN7ynJXJ-bSP2Fgm-114">
          <mxGeometry y="260" width="480" height="30" as="geometry" />
        </mxCell>
        <mxCell id="r_LziN7ynJXJ-bSP2Fgm-130" value="+registrarPaciente (datosPaciente. DatosPaciente) Paciente" style="shape=partialRectangle;html=1;whiteSpace=wrap;connectable=0;fillColor=none;top=0;left=0;bottom=0;right=0;align=left;spacingLeft=6;overflow=hidden;strokeColor=inherit;fontSize=16;" vertex="1" parent="r_LziN7ynJXJ-bSP2Fgm-129">
          <mxGeometry width="480" height="30" as="geometry">
            <mxRectangle width="480" height="30" as="alternateBounds" />
          </mxGeometry>
        </mxCell>
        <mxCell id="r_LziN7ynJXJ-bSP2Fgm-131" value="" style="shape=tableRow;horizontal=0;startSize=0;swimlaneHead=0;swimlaneBody=0;top=0;left=0;bottom=0;right=0;collapsible=0;dropTarget=0;fillColor=none;points=[[0,0.5],[1,0.5]];portConstraint=eastwest;strokeColor=inherit;fontSize=16;" vertex="1" parent="r_LziN7ynJXJ-bSP2Fgm-114">
          <mxGeometry y="290" width="480" height="30" as="geometry" />
        </mxCell>
        <mxCell id="r_LziN7ynJXJ-bSP2Fgm-132" value="+registrarMedico(datosMedico. DatosMedico). Medico" style="shape=partialRectangle;html=1;whiteSpace=wrap;connectable=0;fillColor=none;top=0;left=0;bottom=0;right=0;align=left;spacingLeft=6;overflow=hidden;strokeColor=inherit;fontSize=16;" vertex="1" parent="r_LziN7ynJXJ-bSP2Fgm-131">
          <mxGeometry width="480" height="30" as="geometry">
            <mxRectangle width="480" height="30" as="alternateBounds" />
          </mxGeometry>
        </mxCell>
        <mxCell id="r_LziN7ynJXJ-bSP2Fgm-133" value="" style="shape=tableRow;horizontal=0;startSize=0;swimlaneHead=0;swimlaneBody=0;top=0;left=0;bottom=0;right=0;collapsible=0;dropTarget=0;fillColor=none;points=[[0,0.5],[1,0.5]];portConstraint=eastwest;strokeColor=inherit;fontSize=16;" vertex="1" parent="r_LziN7ynJXJ-bSP2Fgm-114">
          <mxGeometry y="320" width="480" height="30" as="geometry" />
        </mxCell>
        <mxCell id="r_LziN7ynJXJ-bSP2Fgm-134" value="" style="shape=partialRectangle;html=1;whiteSpace=wrap;connectable=0;fillColor=none;top=0;left=0;bottom=0;right=0;align=left;spacingLeft=6;overflow=hidden;strokeColor=inherit;fontSize=16;" vertex="1" parent="r_LziN7ynJXJ-bSP2Fgm-133">
          <mxGeometry width="480" height="30" as="geometry">
            <mxRectangle width="480" height="30" as="alternateBounds" />
          </mxGeometry>
        </mxCell>
        <mxCell id="r_LziN7ynJXJ-bSP2Fgm-135" value="" style="shape=tableRow;horizontal=0;startSize=0;swimlaneHead=0;swimlaneBody=0;top=0;left=0;bottom=0;right=0;collapsible=0;dropTarget=0;fillColor=none;points=[[0,0.5],[1,0.5]];portConstraint=eastwest;strokeColor=inherit;fontSize=16;" vertex="1" parent="r_LziN7ynJXJ-bSP2Fgm-114">
          <mxGeometry y="350" width="480" height="30" as="geometry" />
        </mxCell>
        <mxCell id="r_LziN7ynJXJ-bSP2Fgm-136" value="+asignarTurnos(tunoID: Integer, medicoID; Integer, fechaHora" style="shape=partialRectangle;html=1;whiteSpace=wrap;connectable=0;fillColor=none;top=0;left=0;bottom=0;right=0;align=left;spacingLeft=6;overflow=hidden;strokeColor=inherit;fontSize=16;" vertex="1" parent="r_LziN7ynJXJ-bSP2Fgm-135">
          <mxGeometry width="480" height="30" as="geometry">
            <mxRectangle width="480" height="30" as="alternateBounds" />
          </mxGeometry>
        </mxCell>
        <mxCell id="r_LziN7ynJXJ-bSP2Fgm-137" value="" style="shape=tableRow;horizontal=0;startSize=0;swimlaneHead=0;swimlaneBody=0;top=0;left=0;bottom=0;right=0;collapsible=0;dropTarget=0;fillColor=none;points=[[0,0.5],[1,0.5]];portConstraint=eastwest;strokeColor=inherit;fontSize=16;" vertex="1" parent="r_LziN7ynJXJ-bSP2Fgm-114">
          <mxGeometry y="380" width="480" height="30" as="geometry" />
        </mxCell>
        <mxCell id="r_LziN7ynJXJ-bSP2Fgm-138" value="&amp;nbsp;DateTime)" style="shape=partialRectangle;html=1;whiteSpace=wrap;connectable=0;fillColor=none;top=0;left=0;bottom=0;right=0;align=left;spacingLeft=6;overflow=hidden;strokeColor=inherit;fontSize=16;" vertex="1" parent="r_LziN7ynJXJ-bSP2Fgm-137">
          <mxGeometry width="480" height="30" as="geometry">
            <mxRectangle width="480" height="30" as="alternateBounds" />
          </mxGeometry>
        </mxCell>
        <mxCell id="r_LziN7ynJXJ-bSP2Fgm-139" value="" style="shape=tableRow;horizontal=0;startSize=0;swimlaneHead=0;swimlaneBody=0;top=0;left=0;bottom=0;right=0;collapsible=0;dropTarget=0;fillColor=none;points=[[0,0.5],[1,0.5]];portConstraint=eastwest;strokeColor=inherit;fontSize=16;" vertex="1" parent="r_LziN7ynJXJ-bSP2Fgm-114">
          <mxGeometry y="410" width="480" height="30" as="geometry" />
        </mxCell>
        <mxCell id="r_LziN7ynJXJ-bSP2Fgm-140" value="+cancelarTurno(turno: Turno, motivo: String)= void" style="shape=partialRectangle;html=1;whiteSpace=wrap;connectable=0;fillColor=none;top=0;left=0;bottom=0;right=0;align=left;spacingLeft=6;overflow=hidden;strokeColor=inherit;fontSize=16;" vertex="1" parent="r_LziN7ynJXJ-bSP2Fgm-139">
          <mxGeometry width="480" height="30" as="geometry">
            <mxRectangle width="480" height="30" as="alternateBounds" />
          </mxGeometry>
        </mxCell>
        <mxCell id="r_LziN7ynJXJ-bSP2Fgm-141" value="" style="shape=tableRow;horizontal=0;startSize=0;swimlaneHead=0;swimlaneBody=0;top=0;left=0;bottom=0;right=0;collapsible=0;dropTarget=0;fillColor=none;points=[[0,0.5],[1,0.5]];portConstraint=eastwest;strokeColor=inherit;fontSize=16;" vertex="1" parent="r_LziN7ynJXJ-bSP2Fgm-114">
          <mxGeometry y="440" width="480" height="30" as="geometry" />
        </mxCell>
        <mxCell id="r_LziN7ynJXJ-bSP2Fgm-142" value="+ consultarTurnos(fecha: Date, medico: Medico): List &amp;lt;Turno&amp;gt;" style="shape=partialRectangle;html=1;whiteSpace=wrap;connectable=0;fillColor=none;top=0;left=0;bottom=0;right=0;align=left;spacingLeft=6;overflow=hidden;strokeColor=inherit;fontSize=16;" vertex="1" parent="r_LziN7ynJXJ-bSP2Fgm-141">
          <mxGeometry width="480" height="30" as="geometry">
            <mxRectangle width="480" height="30" as="alternateBounds" />
          </mxGeometry>
        </mxCell>
      </root>
    </mxGraphModel>
  </diagram>
</mxfile>
